grf
version=1
nRows=16
nColumns=28
inDegrees=no
endheader
time	ground_force_1_vx	ground_force_1_vy	ground_force_1_vz	ground_force_1_px	ground_force_1_py	ground_force_1_pz	ground_moment_1_mx	ground_moment_1_my	ground_moment_1_mz	ground_force_2_vx	ground_force_2_vy	ground_force_2_vz	ground_force_2_px	ground_force_2_py	ground_force_2_pz	ground_moment_2_mx	ground_moment_2_my	ground_moment_2_mz	ground_force_3_vx	ground_force_3_vy	ground_force_3_vz	ground_force_3_px	ground_force_3_py	ground_force_3_pz	ground_moment_3_mx	ground_moment_3_my	ground_moment_3_mz
      0.62000000	      0.49368438	      0.12748734	      1.88236200	    440.68225323	  -1518.09878620	      2.43414685	      0.00141520	      0.00511739	      2.80405379	     42.04488884	   -207.34904787	  -1813.32256372	    321.94566325	  -1825.66053710	      0.07536452	      0.28180755	      3.64459955	  -4367.22676962	      1.74565482	     -0.62439975	      4.47650890	    460.28591053	   -322.54007727	      0.46299322	     -0.11096474	      0.81513889	    396.92384820
      0.63000000	      0.46985210	      0.14415821	      1.00142013	    389.02371291	  -1614.06163265	      2.63535074	     -0.00015784	     -0.00057077	     -0.31274935	     14.84819777	   -235.92056870	  -1613.87523189	    324.47939231	  -1829.12335819	      0.07263817	      0.23414056	      3.02812539	  -3628.52217113	      1.65205308	     -0.63101761	      4.39356894	    457.45392687	   -302.43949890	      0.42092214	     -0.10848336	      0.79691087	    388.04789391
      0.64000000	      0.53088908	      0.26534690	      1.46390825	    392.99850110	  -1483.65746515	      2.39535747	      0.00120174	      0.00434552	      2.38111212	     -9.27649175	   -252.29847701	  -1375.87181160	    326.98237954	  -1832.49201846	      0.06998842	      0.13700877	      1.77192591	  -2123.25172162	      1.58280387	     -0.56000891	      3.86451314	    485.79034709	   -251.63234104	      0.32450429	     -0.13203037	      0.96988547	    472.27617226
      0.65000000	      0.44508812	      0.06781595	      1.42433503	    309.06987719	  -1412.72570400	      2.30826590	      0.05058229	      0.18290623	    100.22276335	    -30.13297389	   -251.74069005	  -1107.80384242	    329.37510419	  -1836.04831520	      0.06717497	      0.01114859	      0.14418397	   -172.77181807	      1.62052844	     -0.69568951	      4.40190485	    480.54112367	   -227.82369645	      0.27414241	     -0.13344684	      0.98029071	    477.34290003
      0.66000000	      0.36667271	      0.16055145	      1.24968237	    315.71375751	  -1454.21063168	      2.38062260	      0.06543001	      0.23659576	    129.64173439	    -38.97662684	   -230.84623414	   -828.09399702	    330.78327640	  -1839.33240482	      0.06452515	     -0.10435569	     -1.34962567	   1617.22057141	      1.55842545	     -0.82349694	      3.96035485	    463.59876768	   -239.47311401	      0.29332969	     -0.14303306	      1.05071041	    511.63307991
      0.67000000	      0.39737707	      0.13602355	      1.48427734	    314.27155176	  -1382.65807889	      2.25076730	      0.05122207	      0.18521965	    101.49039666	    -39.68061407	   -193.26458430	   -550.40052386	    331.77645574	  -1843.65740534	      0.06097988	     -0.16157047	     -2.08958086	   2503.88920260	      1.64253553	     -0.63060152	      4.52223608	    457.18298021	   -331.62632817	      0.48078565	     -0.08166280	      0.59988894	    292.11000691
      0.68000000	      0.34239388	      0.17822934	      1.26038468	    272.35834628	  -1306.63946515	      2.13318711	      0.07366229	      0.26636378	    145.95300847	    -29.00261525	   -131.57036965	   -327.17552220	    332.38404300	  -1852.90897973	      0.05329833	     -0.18988363	     -2.45575326	   2942.66385689	      1.47379416	     -0.52588432	      4.42320101	    428.10186403	   -276.52665600	      0.35950077	     -0.09844203	      0.72314795	    352.12977074
      0.69000000	      0.47959960	      0.37613248	      1.73152298	    297.01295662	  -1294.21704785	      2.09807309	      0.06689246	      0.24188401	    132.53941169	    -18.00423321	    -72.59405433	   -168.94391644	    328.99720320	  -1870.50766722	      0.03839308	     -0.12912612	     -1.66998014	   2001.09281965	      1.50035814	     -0.72739419	      4.37024351	    470.44357794	   -292.66259063	      0.40447530	     -0.09865631	      0.72472207	    352.89627224
      0.70000000	      0.68688105	      0.48833785	      1.90053653	    296.10508797	  -1265.22102365	      2.04561363	      0.05175708	      0.18715426	    102.55045975	     -8.25811347	    -31.60276379	    -78.12020263	    333.08683428	  -1889.54044321	      0.02277347	     -0.07723001	     -0.99881093	   1196.84858880	      1.42324653	     -0.57629509	      4.78775784	    463.61124524	   -344.60302185	      0.50923221	     -0.06989669	      0.51345600	    250.02234225
      0.71000000	      0.43113579	      0.33989479	      1.63289260	    245.82891595	  -1241.70209454	      2.02806598	      0.09398056	      0.33983493	    186.21124313	     -2.40875752	    -14.53950000	    -21.64544673	    320.38326610	  -1940.89539471	     -0.02090372	     -0.02655209	     -0.34339653	    411.48293530	      1.61903879	     -0.75037610	      4.39611122	    465.27487108	   -311.11239180	      0.44091959	     -0.11545787	      0.84814504	    412.99587191
      0.72000000	      0.56562194	      0.48883457	      1.84562994	    253.09030930	  -1241.77989122	      2.02454314	      0.11379207	      0.41147361	    225.46538010	     -1.06882029	      1.29378901	     -1.75236157	    507.49544671	  -2562.97690725	     -0.52797800	     -0.04554835	     -0.58907393	    705.87163344	      1.50544478	     -0.49418996	      4.24419934	    466.66427140	   -295.84733847	      0.40995908	     -0.09497857	      0.69770560	    339.74086888
      0.73000000	      0.57767424	      0.35762795	      2.03147038	    310.12955779	  -1215.36232071	      1.94754353	      0.08266688	      0.29892449	    163.79452409	     -0.71612313	      3.89329434	      1.86148407	     92.26457206	  -1230.18530604	      0.55748807	     -0.03068256	     -0.39681568	    475.49367637	      1.66767819	     -0.65542733	      4.18473614	    465.94635316	   -268.81775116	      0.35424932	     -0.10598805	      0.77858046	    379.12208190
      0.74000000	      0.53639603	      0.33048089	      1.97465117	    323.19048879	  -1231.04069231	      1.96956467	      0.07502859	      0.27130435	    148.66017694	     -1.08321047	      3.86230707	      1.17043961	   -116.71285222	  -1089.26073171	      0.66160958	     -0.06014209	     -0.77781387	    932.03368491	      1.70712510	     -0.50889100	      4.69801096	    420.30971115	   -278.49954092	      0.36137397	     -0.09458369	      0.69480485	    338.32837709
      0.75000000	      0.48511695	      0.44921445	      2.29655861	    323.05716710	  -1246.41387818	      1.99768797	      0.07160623	      0.25892904	    141.87917263	     -0.99904549	      3.75965299	      0.93840585	   -210.10721935	   -691.97285668	      0.98713331	     -0.06127962	     -0.79252546	    949.66219272	      1.66191910	     -0.89285863	      4.31590071	    449.39629001	   -303.95568526	      0.42178324	     -0.09323463	      0.68489479	    333.50276869
      0.76000000	      0.67933627	      0.32323174	      2.25469045	    303.76670733	  -1256.65808463	      2.02611949	      0.07676838	      0.27759546	    152.10736610	     -0.75320605	      3.55410374	      0.82060165	   -448.76952782	   -363.56510023	      1.24580042	     -0.11037390	     -1.42745881	   1710.48594635	      1.85784119	     -0.67340385	      5.19620008	    462.19404679	   -310.07667765	      0.43793132	     -0.07409228	      0.54427646	    265.03005759
      0.77000000	      0.63247490	      0.33499723	      1.97965929	    319.58910995	  -1251.04447825	      2.00788913	      0.09359822	      0.33845237	    185.45367479	     -0.95889480	      3.52138473	      0.66066380	   -756.45356931	   -419.44518575	      1.17931241	     -0.16461462	     -2.12895068	   2551.06501755	      1.50326377	     -0.72886049	      4.01587460	    433.30888663	   -258.48957678	      0.32391477	     -0.12238565	      0.89903601	    437.77672879
